<?xml version="1.0" encoding="utf-8"?>
<!-- Generator: Adobe Illustrator 27.5.0, SVG Export Plug-In . SVG Version: 6.00 Build 0)  -->
<svg version="1.1" id="Capa_1" xmlns="http://www.w3.org/2000/svg" xmlns:xlink="http://www.w3.org/1999/xlink" x="0px" y="0px"
	 viewBox="0 0 2349 1917" style="enable-background:new 0 0 2349 1917;" xml:space="preserve">
<path style="fill:#6797D0;" d="M2309.266,991.841l-0.049-1.399l-0.011-0.264c-0.026-0.552-0.058-1.102-0.096-1.653l-0.022-0.298
	l-0.121-1.485l-0.019-0.218c-0.049-0.52-0.105-1.039-0.165-1.558l-0.039-0.329l-0.179-1.408l-0.018-0.133
	C2294.246,879.838,2077.114,815.002,1915,790.893l0.002,0.011c-0.156-0.675-0.315-1.348-0.472-2.023
	c-0.12-0.513-0.24-1.026-0.361-1.539c-0.193-0.817-0.388-1.635-0.583-2.451c-0.119-0.499-0.239-0.997-0.36-1.495
	c-0.203-0.84-0.406-1.678-0.612-2.517l-0.345-1.395c-0.737-2.979-1.492-5.951-2.266-8.915l-0.295-1.132
	c-0.224-0.853-0.451-1.706-0.678-2.558l-0.378-1.413c-0.231-0.862-0.464-1.724-0.699-2.585l-0.32-1.167
	c-0.908-3.312-1.838-6.616-2.79-9.909l-0.019-0.068c-0.286-0.985-0.573-1.968-0.862-2.952l-0.276-0.937
	c-0.292-0.988-0.586-1.974-0.882-2.96l-0.195-0.649c-0.317-1.054-0.636-2.108-0.958-3.16l-0.026-0.087
	c-1.046-3.416-2.115-6.821-3.208-10.216l-0.145-0.452c-0.33-1.024-0.663-2.047-0.998-3.069l-0.213-0.648
	c-0.347-1.059-0.698-2.117-1.05-3.173l-0.028-0.084c-0.383-1.148-0.769-2.295-1.158-3.441c-0.777-2.292-1.566-4.578-2.365-6.859
	c-0.399-1.141-0.802-2.28-1.207-3.418l-0.123-0.344c-0.546-1.532-1.099-3.06-1.654-4.587l-0.377-1.035
	c-0.563-1.538-1.128-3.075-1.701-4.61l-0.013-0.034c-0.579-1.553-1.166-3.103-1.756-4.651l-0.283-0.742
	c-0.598-1.563-1.198-3.125-1.807-4.683l-0.104-0.263c-0.58-1.485-1.165-2.968-1.755-4.45l-0.269-0.675
	c-0.632-1.584-1.269-3.165-1.912-4.744l-0.04-0.098c-0.643-1.579-1.293-3.155-1.947-4.73l-0.144-0.347
	c-0.667-1.603-1.339-3.203-2.017-4.8l-0.096-0.224c-0.68-1.601-1.366-3.199-2.057-4.794l-0.024-0.057
	c-0.711-1.642-1.429-3.28-2.152-4.916l-0.035-0.081c-1.447-3.274-2.918-6.534-4.411-9.782l-0.043-0.095
	c-117.164-254.786-374.653-431.689-673.465-431.689c-351.601,0-645.997,244.925-721.88,573.469c0.183-0.798,0.285-1.228,0.285-1.228
	c-150.812,19.626-381.74,71.939-425.135,170.934l-0.07,0.161l-0.479,1.119l-0.106,0.255l-0.412,1.004l-0.138,0.345l-0.37,0.946
	l-0.143,0.373l-0.361,0.971l-0.119,0.324l-0.365,1.031l-0.1,0.285l-0.44,1.312l-0.049,0.151c-0.174,0.539-0.344,1.079-0.507,1.621
	l-0.021,0.068c-0.337,1.12-0.649,2.246-0.939,3.377l-0.075,0.297l-0.347,1.429l-0.063,0.267c-0.254,1.103-0.483,2.213-0.69,3.327
	l-0.075,0.413l-0.224,1.3l-0.065,0.397c-0.088,0.556-0.172,1.114-0.249,1.672l-0.01,0.076c-0.072,0.526-0.137,1.052-0.199,1.58
	l-0.051,0.452l-0.13,1.262l-0.044,0.467c-0.05,0.556-0.095,1.113-0.133,1.672l-0.003,0.044c-0.037,0.544-0.067,1.089-0.093,1.635
	l-0.02,0.48l-0.042,1.237l-0.013,0.514c-0.012,0.56-0.019,1.121-0.019,1.683v0.002c0,1.218,0.058,2.463,0.175,3.733
	c0.05,0.544,0.112,1.093,0.183,1.647c0.239,1.845,0.598,3.742,1.08,5.687c0.53,2.14,1.207,4.338,2.034,6.591
	c0.526,1.434,1.113,2.89,1.762,4.367c0.741,1.688,1.562,3.404,2.463,5.147l0.691,1.312l0.722,1.321
	c0.307,0.553,0.622,1.108,0.945,1.665c0.323,0.558,0.654,1.118,0.993,1.68l0.829,1.355c1.125,1.812,2.333,3.649,3.623,5.508
	l0.983,1.399l1.014,1.407c0.687,0.941,1.394,1.888,2.123,2.84c0.91,1.19,1.853,2.389,2.829,3.595c0.585,0.724,1.183,1.45,1.792,2.18
	c1.218,1.46,2.484,2.931,3.798,4.411l1.33,1.485c0.449,0.497,0.902,0.994,1.362,1.492c0.689,0.748,1.39,1.499,2.103,2.251
	l0.717,0.754c0.48,0.503,0.967,1.007,1.458,1.512c0.737,0.758,1.487,1.518,2.248,2.281c0.507,0.508,1.02,1.018,1.539,1.528
	c1.296,1.276,2.626,2.559,3.991,3.848c0.819,0.773,1.649,1.549,2.492,2.326c0.562,0.519,1.13,1.038,1.702,1.558
	c0.573,0.52,1.152,1.041,1.735,1.563l0.88,0.784c0.589,0.523,1.184,1.047,1.785,1.571c0.901,0.787,1.814,1.576,2.74,2.367
	c0.925,0.79,1.864,1.583,2.814,2.377c0.634,0.53,1.273,1.06,1.918,1.591l0.971,0.797c1.301,1.064,2.624,2.131,3.969,3.2
	c1.009,0.803,2.031,1.607,3.065,2.412c0.689,0.537,1.384,1.075,2.085,1.613c0.876,0.673,1.761,1.347,2.654,2.022
	c0.894,0.675,1.796,1.35,2.708,2.028c1.094,0.812,2.199,1.626,3.319,2.441c1.118,0.815,2.251,1.631,3.396,2.448
	c0.763,0.545,1.532,1.09,2.307,1.636c0.581,0.41,1.165,0.82,1.752,1.229c1.175,0.82,2.362,1.641,3.563,2.464
	c0.6,0.411,1.204,0.822,1.811,1.234l1.218,0.824c2.037,1.374,4.11,2.749,6.219,4.128c1.687,1.103,3.398,2.207,5.132,3.313
	c1.3,0.829,2.614,1.659,3.94,2.49c0.884,0.554,1.775,1.108,2.67,1.662c0.896,0.555,1.798,1.109,2.706,1.664l1.366,0.832
	c0.913,0.555,1.833,1.111,2.759,1.666c1.388,0.833,2.789,1.667,4.204,2.502c2.829,1.669,5.712,3.34,8.648,5.012
	c0.979,0.557,1.964,1.114,2.954,1.672c0.495,0.279,0.992,0.557,1.49,0.836c1.495,0.836,3.003,1.673,4.525,2.51
	c1.015,0.558,2.035,1.116,3.062,1.674c2.053,1.116,4.13,2.232,6.231,3.348c1.05,0.558,2.107,1.116,3.17,1.674
	c1.593,0.837,3.201,1.674,4.822,2.511c1.621,0.836,3.255,1.673,4.904,2.51c1.649,0.836,3.311,1.672,4.986,2.509
	c1.117,0.557,2.24,1.115,3.37,1.672c1.694,0.836,3.402,1.671,5.123,2.505c1.722,0.834,3.457,1.669,5.206,2.503
	c0.583,0.278,1.168,0.556,1.754,0.834c1.173,0.556,2.351,1.111,3.535,1.666c1.185,0.555,2.375,1.11,3.572,1.665
	c1.197,0.554,2.4,1.109,3.609,1.663c1.21,0.555,2.425,1.108,3.647,1.662c1.221,0.554,2.45,1.107,3.684,1.66
	c1.851,0.83,3.717,1.658,5.596,2.486c1.253,0.552,2.511,1.103,3.777,1.654c2.531,1.103,5.086,2.203,7.667,3.302
	c1.29,0.55,2.587,1.099,3.89,1.647c1.955,0.823,3.923,1.645,5.906,2.466c1.322,0.547,2.65,1.094,3.984,1.64
	c1.334,0.546,2.676,1.092,4.023,1.636c1.347,0.545,2.701,1.09,4.061,1.634c3.4,1.36,6.839,2.716,10.318,4.069
	c1.392,0.541,2.79,1.082,4.194,1.621c1.405,0.54,2.816,1.079,4.233,1.617c1.417,0.538,2.841,1.077,4.271,1.614
	c1.43,0.537,2.867,1.074,4.31,1.609c1.443,0.536,2.893,1.071,4.349,1.605c1.455,0.535,2.918,1.068,4.387,1.601
	c0.734,0.266,1.47,0.532,2.208,0.799c1.475,0.532,2.957,1.064,4.445,1.594c1.488,0.531,2.983,1.06,4.484,1.59
	c1.501,0.529,3.009,1.057,4.523,1.585c4.542,1.582,9.144,3.157,13.804,4.724c1.554,0.522,3.114,1.043,4.68,1.564
	c2.35,0.781,4.714,1.559,7.093,2.336c2.379,0.776,4.774,1.55,7.182,2.323c4.015,1.286,8.072,2.568,12.169,3.842
	c1.639,0.51,3.285,1.019,4.937,1.527c0.826,0.254,1.654,0.507,2.483,0.76c1.66,0.507,3.325,1.012,4.997,1.517
	c1.672,0.505,3.351,1.008,5.037,1.51c2.529,0.753,5.072,1.505,7.63,2.253c1.706,0.499,3.418,0.996,5.137,1.493
	c7.736,2.234,15.609,4.445,23.617,6.63c4.672,1.275,9.391,2.541,14.156,3.798c3.177,0.838,6.374,1.671,9.593,2.501
	c4.828,1.244,9.703,2.479,14.625,3.705c0.938,0.234,1.877,0.467,2.818,0.699c1.882,0.465,3.771,0.929,5.667,1.391
	c4.74,1.156,9.522,2.303,14.348,3.44c1.88,0.443,3.767,0.885,5.661,1.326c0.946,0.22,1.898,0.438,2.848,0.658
	c0.967,0.224,1.931,0.447,2.901,0.67c1.085,0.249,2.176,0.496,3.265,0.744c0.819,0.187,1.635,0.373,2.456,0.559
	c1.234,0.28,2.475,0.557,3.716,0.835c0.603,0.135,1.202,0.271,1.807,0.406c78.655,184.233,229.813,330.102,417.619,401.765
	l0.149,0.057c2.908,1.109,5.824,2.2,8.75,3.274l0.454,0.166c1.653,0.605,3.308,1.205,4.966,1.798l1.239,0.443
	c1.45,0.516,2.901,1.027,4.356,1.534l1.269,0.443c0.851,0.295,1.702,0.589,2.553,0.88c0.626,0.215,1.253,0.427,1.879,0.64
	c1.172,0.398,2.346,0.794,3.521,1.187c0.71,0.238,1.421,0.473,2.133,0.709c1,0.331,2.002,0.661,3.004,0.987
	c0.829,0.27,1.657,0.539,2.488,0.806c0.69,0.223,1.381,0.445,2.072,0.665c1.164,0.371,2.33,0.739,3.497,1.105
	c0.652,0.204,1.305,0.407,1.958,0.61c1.04,0.323,2.082,0.643,3.124,0.962c0.675,0.206,1.351,0.411,2.028,0.615
	c1.027,0.31,2.055,0.619,3.085,0.925c0.529,0.157,1.059,0.315,1.589,0.472c1.323,0.39,2.648,0.776,3.974,1.159
	c0.504,0.146,1.008,0.291,1.513,0.435c1.367,0.392,2.736,0.781,4.107,1.165l1.17,0.325c1.245,0.347,2.491,0.69,3.738,1.031
	l0.962,0.264c1.47,0.399,2.943,0.792,4.417,1.182l1.067,0.282c1.499,0.394,3.002,0.785,4.505,1.17l0.897,0.228
	c1.582,0.404,3.165,0.804,4.752,1.197l0.302,0.075c3.321,0.822,6.652,1.621,9.991,2.398c1.113,0.259,2.227,0.515,3.342,0.769
	l0.522,0.119c1.047,0.238,2.094,0.473,3.143,0.707l0.319,0.07c3.161,0.701,6.331,1.382,9.507,2.044l1.027,0.214
	c0.921,0.191,1.843,0.379,2.765,0.566l1.086,0.219c2.872,0.577,5.749,1.138,8.633,1.682l1.475,0.278
	c0.808,0.151,1.617,0.3,2.426,0.448c0.555,0.102,1.109,0.202,1.664,0.303c0.779,0.141,1.557,0.281,2.336,0.419
	c0.531,0.094,1.063,0.186,1.595,0.28c1.378,0.241,2.758,0.479,4.139,0.713c0.614,0.104,1.227,0.209,1.84,0.311
	c0.731,0.122,1.464,0.242,2.196,0.362c0.618,0.101,1.235,0.202,1.853,0.301c0.762,0.123,1.524,0.244,2.286,0.365
	c0.588,0.093,1.178,0.184,1.766,0.276c0.89,0.138,1.779,0.276,2.67,0.411c1.077,0.163,2.155,0.325,3.234,0.484
	c0.65,0.095,1.3,0.188,1.95,0.282c0.741,0.107,1.481,0.213,2.223,0.318c0.665,0.094,1.331,0.187,1.996,0.279
	c0.742,0.103,1.485,0.204,2.229,0.305c0.63,0.085,1.261,0.171,1.892,0.255c1.167,0.155,2.335,0.307,3.505,0.456
	c0.583,0.074,1.168,0.147,1.752,0.221c0.933,0.117,1.867,0.233,2.803,0.347c0.564,0.068,1.129,0.136,1.694,0.203
	c0.847,0.101,1.694,0.2,2.542,0.299c0.571,0.066,1.142,0.132,1.714,0.197c0.978,0.111,1.956,0.219,2.935,0.326
	c0.543,0.059,1.085,0.119,1.628,0.177c1.188,0.128,2.378,0.252,3.568,0.374c0.58,0.059,1.162,0.117,1.743,0.175
	c0.858,0.086,1.716,0.17,2.574,0.252c0.556,0.054,1.112,0.107,1.669,0.159c0.971,0.092,1.943,0.181,2.915,0.268l1.307,0.118
	c1.355,0.12,2.711,0.236,4.068,0.349l1.437,0.116c0.942,0.076,1.883,0.151,2.826,0.224c0.545,0.042,1.091,0.083,1.636,0.124
	c0.937,0.071,1.876,0.138,2.814,0.205c0.501,0.036,1.001,0.072,1.502,0.107c1.372,0.095,2.745,0.187,4.12,0.274l0.718,0.044
	c1.204,0.075,2.409,0.148,3.614,0.217l1.331,0.075c1.024,0.057,2.049,0.113,3.074,0.165l1.401,0.072
	c1.218,0.061,2.436,0.119,3.656,0.174l0.606,0.028c1.448,0.064,2.897,0.123,4.347,0.179l1.095,0.04
	c1.065,0.039,2.129,0.077,3.195,0.112c0.505,0.017,1.01,0.032,1.516,0.047c1.049,0.032,2.1,0.062,3.15,0.09l1.15,0.031
	c1.436,0.036,2.872,0.068,4.31,0.095l0.832,0.014c1.186,0.021,2.374,0.04,3.563,0.056l1.316,0.016
	c1.047,0.012,2.094,0.022,3.142,0.03l1.349,0.01c1.44,0.008,2.88,0.014,4.323,0.014l0,0c20.778,0,41.357-0.856,61.702-2.533
	c1.565-0.129,3.128-0.263,4.691-0.402c18.747-1.665,37.293-4.028,55.613-7.063c1.146-0.19,2.289-0.382,3.432-0.577
	c2.287-0.39,4.569-0.79,6.848-1.201c1.14-0.205,2.278-0.413,3.416-0.624c6.068-1.123,12.11-2.321,18.126-3.591
	c18.046-3.811,35.849-8.278,53.384-13.376c5.845-1.699,11.661-3.469,17.445-5.307c2.893-0.919,5.777-1.856,8.653-2.809
	c2.877-0.954,5.746-1.925,8.607-2.912c2.146-0.741,4.287-1.491,6.423-2.252c2.136-0.759,4.269-1.529,6.396-2.308
	c4.255-1.558,8.492-3.154,12.71-4.788c1.406-0.545,2.81-1.093,4.212-1.646c2.804-1.106,5.599-2.228,8.387-3.366
	c2.787-1.139,5.565-2.294,8.335-3.466c4.155-1.757,8.29-3.552,12.406-5.382c5.487-2.441,10.94-4.947,16.357-7.516
	c2.708-1.285,5.407-2.585,8.097-3.902c2.69-1.316,5.371-2.649,8.042-3.997c2.672-1.348,5.333-2.712,7.987-4.091
	c3.979-2.068,7.938-4.173,11.874-6.311c1.312-0.713,2.622-1.429,3.929-2.15c3.923-2.162,7.823-4.358,11.702-6.588
	c7.756-4.461,15.425-9.057,23.002-13.787c2.525-1.577,5.041-3.168,7.546-4.774c3.758-2.409,7.492-4.851,11.203-7.326
	c1.237-0.825,2.471-1.654,3.703-2.485c4.619-3.12,9.201-6.291,13.745-9.513c1.515-1.074,3.025-2.153,4.531-3.238
	c1.205-0.868,2.408-1.739,3.607-2.614c3.599-2.624,7.172-5.281,10.722-7.969c3.549-2.687,7.073-5.406,10.572-8.155
	c2.333-1.833,4.654-3.68,6.963-5.54c2.31-1.86,4.609-3.734,6.895-5.622c2.287-1.887,4.562-3.788,6.826-5.702
	c2.263-1.914,4.516-3.841,6.756-5.782c3.361-2.911,6.695-5.852,10.002-8.822c9.921-8.91,19.601-18.083,29.028-27.511
	c2.095-2.095,4.177-4.202,6.247-6.322c5.175-5.3,10.27-10.676,15.285-16.128c2.006-2.181,3.999-4.374,5.979-6.578
	c0.99-1.102,1.977-2.208,2.96-3.316c1.967-2.217,3.921-4.445,5.862-6.686c2.911-3.36,5.792-6.748,8.643-10.161
	c1.901-2.275,3.788-4.562,5.662-6.86c1.873-2.299,3.734-4.608,5.581-6.929c1.846-2.321,3.679-4.654,5.499-6.997
	c2.729-3.516,5.427-7.057,8.093-10.622c1.778-2.377,3.542-4.765,5.291-7.164c1.75-2.399,3.486-4.808,5.207-7.229
	c1.722-2.421,3.429-4.852,5.122-7.295c1.693-2.442,3.372-4.895,5.036-7.359c2.497-3.695,4.96-7.414,7.391-11.156
	c0.811-1.248,1.617-2.498,2.42-3.75c2.409-3.758,4.785-7.538,7.128-11.342c4.685-7.607,9.237-15.305,13.652-23.092
	c0.736-1.297,1.468-2.598,2.196-3.9c2.185-3.908,4.335-7.838,6.45-11.788c0.705-1.317,1.406-2.636,2.103-3.958
	c2.092-3.965,4.15-7.952,6.172-11.959c2.022-4.008,4.008-8.036,5.959-12.084s3.866-8.118,5.745-12.207
	c1.253-2.726,2.489-5.461,3.709-8.205c1.221-2.744,2.425-5.496,3.613-8.258c0.542-1.261,1.08-2.525,1.616-3.789
	c7.512-1.768,14.911-3.56,22.198-5.376c0.918-0.229,1.835-0.458,2.75-0.688c1.83-0.459,3.652-0.92,5.468-1.382
	c0.908-0.231,1.814-0.462,2.718-0.694c37.075-9.5,71.193-19.599,102.506-30.111c1.528-0.513,3.048-1.026,4.563-1.541
	c2.271-0.772,4.528-1.547,6.769-2.323c0.747-0.259,1.493-0.518,2.236-0.777c8.182-2.852,16.164-5.731,23.948-8.635
	c0.708-0.264,1.414-0.528,2.118-0.792c17.611-6.609,34.203-13.34,49.813-20.153c0.624-0.272,1.247-0.545,1.868-0.817
	c2.485-1.091,4.945-2.184,7.38-3.279c1.218-0.547,2.429-1.095,3.634-1.644c6.025-2.742,11.894-5.494,17.61-8.255
	c1.143-0.552,2.28-1.105,3.411-1.657c6.785-3.317,13.35-6.645,19.699-9.979c1.058-0.555,2.11-1.111,3.156-1.667
	c2.092-1.112,4.16-2.225,6.205-3.338c1.533-0.834,3.053-1.67,4.56-2.505c2.009-1.114,3.993-2.228,5.955-3.342l1.467-0.836
	c0.975-0.557,1.944-1.115,2.907-1.672c0.963-0.557,1.92-1.114,2.871-1.671c1.903-1.115,3.782-2.229,5.638-3.343l1.388-0.836
	c2.766-1.671,5.48-3.341,8.143-5.01l1.327-0.835c0.882-0.556,1.757-1.112,2.628-1.668l1.301-0.834
	c0.864-0.556,1.723-1.111,2.576-1.666c0.853-0.556,1.701-1.111,2.542-1.665c0.842-0.555,1.677-1.11,2.508-1.664
	c0.83-0.554,1.655-1.109,2.474-1.662c0.819-0.554,1.632-1.109,2.44-1.661c1.211-0.83,2.41-1.659,3.597-2.488
	c0.792-0.553,1.576-1.105,2.356-1.656l1.165-0.827c1.162-0.827,2.31-1.654,3.446-2.479l1.132-0.825
	c0.752-0.549,1.498-1.1,2.239-1.649c1.481-1.099,2.941-2.195,4.379-3.29c0.719-0.547,1.432-1.094,2.14-1.641
	c1.062-0.82,2.112-1.639,3.149-2.456c0.691-0.545,1.377-1.089,2.058-1.633c0.68-0.543,1.356-1.087,2.025-1.63
	c0.67-0.542,1.334-1.085,1.993-1.627c2.636-2.167,5.185-4.324,7.65-6.471c0.924-0.805,1.836-1.609,2.737-2.411l0.896-0.801
	c0.893-0.801,1.772-1.601,2.641-2.398c0.579-0.531,1.153-1.063,1.722-1.593c0.569-0.53,1.132-1.059,1.691-1.589
	c2.232-2.115,4.382-4.217,6.448-6.305c0.516-0.522,1.028-1.043,1.534-1.564c1.772-1.821,3.482-3.631,5.129-5.429
	c0.471-0.514,0.937-1.027,1.397-1.538c0.46-0.513,0.916-1.023,1.366-1.533c0.676-0.765,1.34-1.527,1.993-2.287
	c0.653-0.76,1.295-1.518,1.926-2.273c0.421-0.504,0.836-1.006,1.247-1.507c0.41-0.501,0.816-1.002,1.216-1.501
	c0.401-0.499,0.797-0.997,1.188-1.494c0.782-0.994,1.543-1.982,2.286-2.967c0.557-0.738,1.102-1.474,1.636-2.207l1.055-1.462
	l0.816-1.155c0.409-0.583,0.812-1.166,1.207-1.746c0.819-1.202,1.607-2.398,2.366-3.583l0.896-1.42l0.868-1.411l0.684-1.142
	l0.564-0.959c0.541-0.93,1.063-1.854,1.566-2.772c0.377-0.688,0.745-1.374,1.101-2.056l0.53-1.027l0.509-1.009l0.657-1.346
	c0.536-1.117,1.044-2.225,1.523-3.323l0.562-1.313c0.274-0.653,0.538-1.304,0.791-1.951c0.254-0.646,0.497-1.29,0.73-1.929
	l0.23-0.637l0.44-1.268c0.568-1.684,1.066-3.34,1.493-4.967c0.32-1.221,0.602-2.425,0.844-3.612l0.118-0.593
	c0.344-1.773,0.6-3.507,0.769-5.201c0.171-1.695,0.255-3.349,0.255-4.961v0v-0.001c0-0.549-0.008-1.097-0.019-1.644
	L2309.266,991.841z M2147.769,993.92c0,35.281-57.029,80.912-230.028,118.948c0.388-1.826,0.772-3.654,1.147-5.485
	c0.617-3.015,1.215-6.035,1.795-9.063c0.58-3.027,1.142-6.061,1.685-9.102c0.272-1.52,0.538-3.042,0.801-4.565
	c0.525-3.047,1.031-6.1,1.518-9.16c2.436-15.298,4.403-30.751,5.888-46.346c0.297-3.119,0.574-6.243,0.832-9.374
	c0.205-2.482,0.392-4.968,0.572-7.457c0.036-0.504,0.072-1.008,0.107-1.512c0.093-1.318,0.183-2.638,0.268-3.958
	c0.067-1.041,0.134-2.083,0.197-3.125c0.037-0.605,0.073-1.211,0.108-1.816c0.093-1.598,0.183-3.196,0.267-4.796l0.002-0.021
	c0.081-1.556,0.156-3.113,0.228-4.673l0.01-0.213c0.066-1.464,0.128-2.93,0.186-4.397l0.021-0.504
	c0.056-1.434,0.107-2.87,0.154-4.307l0.019-0.547c0.046-1.438,0.088-2.878,0.126-4.318l0.016-0.547
	c0.035-1.36,0.066-2.721,0.093-4.082l0.018-0.811c0.028-1.431,0.05-2.863,0.07-4.296l0.008-0.553
	c0.02-1.536,0.035-3.073,0.045-4.611l0.003-0.262c0.01-1.63,0.016-3.261,0.016-4.894l-0.002-0.586
	c-0.001-1.247-0.004-2.493-0.012-3.738l-0.004-0.803l-0.011-1.25c-0.007-0.805-0.015-1.61-0.024-2.414l-0.018-1.473l-0.014-1.027
	c-0.009-0.641-0.022-1.281-0.033-1.921c-0.01-0.595-0.021-1.191-0.033-1.786l-0.019-0.979l-0.03-1.27l-0.018-0.766l-0.03-1.314
	c-0.014-0.537-0.03-1.074-0.045-1.611c-0.014-0.499-0.028-0.999-0.042-1.498l-0.032-1.087c-0.018-0.56-0.038-1.118-0.056-1.678
	c-0.018-0.563-0.036-1.126-0.056-1.688l-0.018-0.514l-0.021-0.55c-0.021-0.576-0.044-1.151-0.067-1.727
	c-0.03-0.784-0.063-1.569-0.096-2.352l-0.038-0.894l-0.054-1.191c-0.043-0.956-0.089-1.911-0.136-2.865l-0.045-0.953l-0.004-0.082
	l-0.024-0.458c-0.072-1.409-0.148-2.818-0.228-4.224l-0.029-0.501l-0.057-0.96c-0.056-0.957-0.113-1.914-0.173-2.87l-0.085-1.316
	l-0.065-0.996c-0.044-0.663-0.088-1.326-0.134-1.988c-0.044-0.646-0.089-1.292-0.135-1.937l-0.05-0.717l-0.014-0.198
	c-0.036-0.5-0.075-1.001-0.112-1.501c-0.047-0.634-0.093-1.268-0.142-1.902l-0.113-1.433l-0.093-1.165l-0.019-0.245
	c-0.049-0.612-0.098-1.223-0.149-1.834c-0.056-0.672-0.114-1.344-0.172-2.016l-0.07-0.818l-0.077-0.889
	c-0.05-0.56-0.102-1.118-0.152-1.677c-0.071-0.778-0.141-1.554-0.213-2.331l-0.042-0.442c-0.052-0.557-0.107-1.114-0.16-1.67
	c-0.08-0.829-0.161-1.657-0.244-2.484l-0.04-0.402l-0.096-0.949l-0.056-0.556c-0.085-0.826-0.172-1.651-0.26-2.476
	c-0.063-0.602-0.125-1.203-0.191-1.804c-0.112-1.035-0.227-2.069-0.345-3.103l0.147,0.036c0.665,0.167,1.332,0.336,2.001,0.505
	l0.753,0.191c0.635,0.161,1.272,0.324,1.91,0.487l0.312,0.08c0.8,0.204,1.602,0.411,2.406,0.619l0.061,0.016
	c52.1,13.478,113.027,33.433,155.979,57.366l0.002-0.031C2125.502,951.666,2147.769,972.185,2147.769,993.92z M1920.257,815.617
	l0.064,0.341l-0.107-0.544L1920.257,815.617z M471.117,790.975c-0.145,0.627-0.286,1.255-0.428,1.882
	C470.857,792.115,471,791.486,471.117,790.975z M260.113,936.992l0.003,0.026c48.851-25.582,121.628-46.693,181.66-60.733
	l0.553-0.129c0.875-0.204,1.747-0.407,2.616-0.608l0.484-0.112c0.758-0.174,1.513-0.348,2.266-0.521l0.855-0.196
	c0.676-0.155,1.349-0.308,2.021-0.461l1.139-0.258c0.667-0.151,1.332-0.301,1.995-0.45l0.735-0.165
	c0.624-0.14,1.244-0.278,1.864-0.417l0.746-0.166l0.064-0.539c-0.486,4.212-0.935,8.436-1.349,12.669l-0.004,0.038
	c-0.148,1.515-0.293,3.031-0.432,4.548l-0.109,1.188c-0.087,0.97-0.172,1.94-0.256,2.91c-0.044,0.51-0.088,1.021-0.131,1.532
	c-0.078,0.924-0.153,1.849-0.227,2.775c-0.044,0.551-0.088,1.102-0.132,1.653c-0.072,0.923-0.143,1.845-0.211,2.769
	c-0.04,0.535-0.079,1.071-0.118,1.607c-0.066,0.918-0.132,1.836-0.194,2.754c-0.04,0.579-0.077,1.158-0.116,1.737
	c-0.059,0.893-0.118,1.787-0.174,2.68c-0.04,0.634-0.077,1.269-0.114,1.903c-0.05,0.826-0.101,1.652-0.147,2.478
	c-0.077,1.359-0.15,2.72-0.22,4.081c-0.03,0.6-0.059,1.2-0.088,1.801c-0.048,0.98-0.096,1.961-0.14,2.942
	c-0.028,0.641-0.054,1.282-0.081,1.923c-0.036,0.853-0.072,1.706-0.105,2.56c-0.026,0.675-0.05,1.351-0.075,2.027
	c-0.03,0.837-0.06,1.675-0.088,2.513c-0.023,0.691-0.044,1.383-0.064,2.075c-0.025,0.825-0.049,1.649-0.07,2.474
	c-0.018,0.672-0.036,1.343-0.052,2.014c-0.02,0.858-0.039,1.717-0.057,2.576c-0.013,0.655-0.027,1.311-0.039,1.967
	c-0.017,0.916-0.03,1.834-0.043,2.751c-0.009,0.582-0.018,1.163-0.025,1.745c-0.013,1.025-0.021,2.05-0.029,3.075
	c-0.004,0.501-0.009,1.001-0.013,1.502c-0.009,1.512-0.014,3.025-0.014,4.54c0,1.414,0.005,2.828,0.013,4.241l0.007,1.105
	c0.01,1.356,0.022,2.71,0.039,4.065l0.002,0.205c0.018,1.408,0.041,2.816,0.067,4.223l0.021,1.104
	c0.025,1.264,0.053,2.526,0.084,3.788l0.012,0.509c0.035,1.376,0.075,2.752,0.118,4.126l0.039,1.227
	c0.038,1.164,0.078,2.327,0.122,3.49l0.027,0.732c0.052,1.378,0.11,2.757,0.17,4.133l0.05,1.097
	c0.053,1.171,0.108,2.341,0.167,3.511l0.038,0.783c0.071,1.378,0.145,2.754,0.223,4.13l0.06,1.032
	c0.066,1.135,0.134,2.27,0.205,3.403l0.061,0.99c0.086,1.332,0.174,2.663,0.266,3.993l0.088,1.234
	c0.072,1.01,0.145,2.019,0.22,3.028l0.096,1.275c0.099,1.302,0.203,2.602,0.309,3.903l0.102,1.215
	c0.085,1.012,0.171,2.024,0.26,3.035l0.112,1.275c0.117,1.3,0.236,2.599,0.359,3.897l0.114,1.186
	c0.094,0.974,0.19,1.948,0.287,2.921l0.149,1.477c0.128,1.249,0.258,2.498,0.392,3.746l0.15,1.369
	c0.098,0.896,0.197,1.792,0.298,2.688c0.06,0.53,0.12,1.06,0.181,1.589c0.143,1.243,0.289,2.486,0.438,3.726l0.155,1.265
	c0.111,0.905,0.222,1.811,0.336,2.715c0.071,0.562,0.142,1.124,0.214,1.686c0.131,1.018,0.263,2.037,0.398,3.054
	c0.088,0.667,0.178,1.333,0.268,1.999c0.111,0.82,0.223,1.64,0.336,2.459c0.088,0.632,0.176,1.263,0.265,1.894
	c0.113,0.797,0.227,1.595,0.342,2.392c0.132,0.914,0.266,1.828,0.402,2.741c0.107,0.721,0.214,1.443,0.324,2.164
	c0.103,0.682,0.208,1.364,0.313,2.045c0.1,0.647,0.201,1.294,0.303,1.94c0.181,1.154,0.365,2.309,0.552,3.461
	c0.092,0.571,0.185,1.141,0.278,1.711c0.119,0.729,0.241,1.457,0.362,2.185c0.095,0.568,0.192,1.135,0.288,1.702
	c0.222,1.309,0.448,2.616,0.677,3.923l0.233,1.331c0.14,0.789,0.281,1.577,0.424,2.365l0.245,1.347
	c0.29,1.592,0.586,3.182,0.887,4.771l0.117,0.618c0.16,0.841,0.322,1.682,0.484,2.522l0.223,1.145
	c0.536,2.743,1.086,5.481,1.653,8.214l0.14,0.675c0.508,2.441,1.027,4.879,1.559,7.312l-0.188-0.035
	c-204.172-38.743-263.934-86.385-263.934-123.202C205.198,973.443,227.233,954.205,260.113,936.992z"/>
<path style="fill:#7EB8E5;" d="M1663.231,804.274c0.421-20.999-1.657-41.898-7.148-62.487
	c-12.152-36.454-78.984-48.605-109.362-24.303c-69.238,50.775-92.888,133.11-124.233,212.372c0.592,4.022,0.905,8.181,0.905,12.439
	c0,29.416-14.83,54.14-34.917,61.215c-42.621,72.383-127.456,60.208-194.143,23.833c-2.704-1.352-5.347-2.815-7.93-4.377
	c-3.879,1.081-7.943,1.663-12.166,1.663c-33.946,0-57.603-37.525-57.603-71.201c0-3.258,0.227-6.305,0.696-9.315
	c0.733-4.727,4.349-8.297,8.79-9.157c-8.643-42.349,2.866-88.688,43.911-120.261c91.135-60.757,273.405-109.362,182.27-224.8
	c-60.757-72.908-170.119-115.438-115.438-230.875c30.029-68.639,99.444-97.871,174.009-109.142
	c-68.882-21.161-141.984-32.678-217.803-32.678c-226.659,0-429.456,101.857-565.346,262.216
	c45.274,37.358,78.137,85.503,98.249,139.795c2.952,5.645,5.402,11.685,7.265,18.072c1.407,4.826,2.426,9.665,3.075,14.481
	c6.821,25.515,11.031,52.095,12.597,79.316c-9.948,14.898-14.828,32.258-12.821,50.18c1.188,10.606,4.685,20.486,10.034,29.341
	c-0.425,3.387-0.886,6.777-1.389,10.169c-12.152,72.908-91.135,85.059-127.589,139.741c-24.303,30.378-36.454,85.059,0,109.362
	c30.378,30.378,78.983,72.908,115.437,42.53c21.9-13.937,37.276-33.093,49.763-54.475c2.769-15.872,10.137-30.164,20.681-41.451
	c14.777-32.972,28.227-66.721,51.069-92.419c18.594-18.593,50.842-23.529,77.245-13.417c8.079-18.888,23.166-31.594,40.444-31.594
	c25.796,0,46.708,28.317,46.708,63.248c0,29.625-15.042,54.489-35.347,61.361c8.186,67.68-12.758,138.395-74.369,157.352
	c-10.89,2.722-21.102,6.666-30.494,11.566c105.043,9.076,211.932,14.386,314.101,14.386c89.285,0,181.08-4.075,271.411-11.183
	c55.966-4.404,111.37-9.973,165.267-16.458c-30.248-41.349-41.348-92.737-21.583-144.126
	C1630.993,949.349,1661.788,876.225,1663.231,804.274z"/>
<path style="fill:#4574B9;" d="M2309.276,992.275l-0.01-0.434l-0.049-1.399l-0.011-0.264c-0.026-0.552-0.058-1.102-0.096-1.653
	l-0.022-0.298l-0.121-1.485l-0.019-0.218c-0.049-0.52-0.105-1.039-0.165-1.558l-0.039-0.329l-0.179-1.408l-0.018-0.133
	C2294.246,879.838,2077.114,815.002,1915,790.893l0.002,0.011l0.027,0.125l5.185,24.386l0.043,0.203l0.064,0.341
	c0.47,2.545,0.92,5.012,1.354,7.43l-0.006-0.002c1.257,7.005,2.389,13.63,3.539,20.6c0.496,3.002,0.995,6.067,1.508,9.255
	l0.911,7.697l1.568,13.239h0.001l0.194,0.049c0.665,0.167,1.332,0.336,2.001,0.505l0.753,0.191c0.635,0.161,1.272,0.324,1.91,0.487
	l0.312,0.08c0.8,0.204,1.602,0.411,2.406,0.619l0.061,0.016c52.1,13.478,113.027,33.433,155.979,57.366l0.002-0.031
	c32.691,18.209,54.958,38.727,54.958,60.463c0,35.281-57.029,80.912-230.028,118.948l-0.029,0.007
	c-16.861,3.707-34.823,7.342-53.942,10.887c-11.486,2.129-23.172,4.221-34.997,6.285c-1.151,0.203-2.298,0.406-3.46,0.609
	c-61.689,10.696-127.754,20.419-196.253,28.662c-53.897,6.485-109.301,12.054-165.267,16.458
	c-90.331,7.108-182.126,11.183-271.411,11.183c-102.169,0-209.058-5.309-314.101-14.386
	c-106.171-9.174-210.455-22.197-306.077-37.474c9.859,8.065,20.185,15.883,31.698,23.889c2.505,1.74,3.123,5.184,1.381,7.686
	c-1.073,1.543-2.791,2.371-4.539,2.371c-1.087,0-2.187-0.321-3.147-0.99c-12.942-8.998-24.398-17.748-35.352-26.846
	c2.205,15.577,3.955,31.447,5.805,48.227l0.499,4.517c0.335,3.031-1.852,5.761-4.884,6.098l-0.615,0.033
	c-2.778,0-5.17-2.09-5.483-4.917l-0.496-4.52c-1.806-16.376-3.515-31.873-5.648-47.054c-5.751,13.129-10.834,26.552-15.22,40.209
	c-0.753,2.344-2.923,3.838-5.259,3.838c-0.558,0-1.127-0.086-1.688-0.267c-2.904-0.933-4.504-4.042-3.57-6.947
	c4.958-15.435,10.785-30.578,17.437-45.348c-14.069,3.682-27.431,7.301-40.256,12.341c-0.663,0.262-1.346,0.385-2.017,0.385
	c-2.206,0-4.288-1.329-5.143-3.506c-1.116-2.84,0.28-6.044,3.121-7.16c9.535-3.749,19.511-6.782,29.492-9.535
	c-22.893-3.984-48.184-8.411-50.617-8.865c-2.806-0.526-5.596-1.054-8.38-1.581l-0.003,0l-0.188-0.035
	c-204.172-38.743-263.934-86.385-263.934-123.202c0-20.476,22.036-39.715,54.915-56.928l0.003,0.026
	c48.851-25.582,121.628-46.693,181.66-60.733l0.553-0.129c0.875-0.204,1.747-0.407,2.616-0.608l0.484-0.112
	c0.758-0.174,1.513-0.348,2.266-0.521l0.855-0.196c0.676-0.155,1.349-0.308,2.021-0.461l1.139-0.258
	c0.667-0.151,1.332-0.301,1.995-0.45l0.735-0.165c0.624-0.14,1.244-0.278,1.864-0.417l0.745-0.166
	c0.003-0.023,0.232-1.978,0.643-5.239c0.065-0.515,0.134-1.062,0.208-1.639l0.075-0.587l0.089-0.688l0.154-1.189l0.087-0.662
	l0.169-1.283l0.024-0.186l0.166-1.248l0.025-0.185c0.748-5.583,1.716-12.457,2.826-19.545l0.192-1.212
	c0.086-0.54,0.171-1.08,0.258-1.621l0.194-1.203l0.048-0.292l0.218-1.324c0.216-1.299,0.435-2.595,0.657-3.883l0.029-0.169
	l0.181-1.039l0.067-0.384c0.091-0.516,0.182-1.03,0.274-1.542c0.337-1.891,0.679-3.758,1.023-5.593
	c0.126-0.674,0.252-1.346,0.379-2.01h-0.002c1.848-9.731,3.685-18.342,4.921-23.937c0.277-1.253,0.523-2.356,0.733-3.285
	c0.167-0.742,0.311-1.371,0.428-1.882l0.071-0.307c0.183-0.798,0.285-1.228,0.285-1.228
	c-150.812,19.626-381.74,71.939-425.135,170.934l-0.07,0.161l-0.479,1.119l-0.106,0.255l-0.412,1.004l-0.138,0.345l-0.37,0.946
	l-0.143,0.373l-0.361,0.971l-0.119,0.324l-0.365,1.031l-0.1,0.285l-0.44,1.312l-0.049,0.151c-0.174,0.539-0.344,1.079-0.507,1.621
	l-0.021,0.068c-0.337,1.12-0.649,2.246-0.939,3.377l-0.075,0.297l-0.347,1.429l-0.063,0.267c-0.254,1.103-0.483,2.213-0.69,3.327
	l-0.075,0.413l-0.224,1.3l-0.065,0.397c-0.088,0.556-0.172,1.114-0.249,1.672l-0.01,0.076c-0.072,0.526-0.137,1.052-0.199,1.58
	l-0.051,0.452l-0.13,1.262l-0.044,0.467c-0.05,0.556-0.095,1.113-0.133,1.672l-0.003,0.044c-0.037,0.544-0.067,1.089-0.093,1.635
	l-0.02,0.48l-0.042,1.237l-0.013,0.514c-0.012,0.56-0.019,1.121-0.019,1.683v0.002c0,1.218,0.058,2.463,0.175,3.733
	c0.05,0.544,0.112,1.093,0.183,1.647c0.239,1.845,0.598,3.742,1.08,5.687c0.53,2.14,1.207,4.338,2.034,6.591
	c0.526,1.434,1.113,2.89,1.762,4.367c0.741,1.688,1.562,3.404,2.463,5.147l0.691,1.312l0.722,1.321
	c0.614,1.106,1.26,2.221,1.938,3.346l0.829,1.355c1.125,1.812,2.333,3.649,3.623,5.508l0.983,1.399l1.014,1.407
	c0.687,0.941,1.394,1.888,2.123,2.84c0.91,1.19,1.853,2.389,2.829,3.595c0.585,0.724,1.183,1.45,1.792,2.18
	c1.624,1.946,3.334,3.912,5.128,5.897c0.449,0.497,0.902,0.994,1.362,1.492c0.689,0.748,1.39,1.499,2.103,2.251l0.717,0.754
	c0.48,0.503,0.967,1.007,1.458,1.512c0.737,0.758,1.487,1.518,2.248,2.281c0.507,0.508,1.02,1.018,1.539,1.528
	c1.296,1.276,2.626,2.559,3.991,3.848c0.819,0.773,1.649,1.549,2.492,2.326c0.562,0.519,1.13,1.038,1.702,1.558
	c0.573,0.52,1.152,1.041,1.735,1.563l0.88,0.784c0.589,0.523,1.184,1.047,1.785,1.571c0.901,0.787,1.814,1.576,2.74,2.367
	c0.925,0.79,1.864,1.583,2.814,2.377c0.634,0.53,1.273,1.06,1.918,1.591l0.971,0.797c1.301,1.064,2.624,2.131,3.969,3.2
	c1.009,0.803,2.031,1.606,3.065,2.412c0.689,0.537,1.384,1.075,2.085,1.613c1.752,1.346,3.539,2.696,5.362,4.05
	c1.094,0.812,2.199,1.626,3.319,2.441c1.118,0.815,2.251,1.631,3.396,2.448c0.763,0.545,1.532,1.09,2.307,1.636
	c2.323,1.638,4.698,3.281,7.126,4.927l1.218,0.824c2.037,1.374,4.11,2.749,6.219,4.128c1.687,1.103,3.398,2.207,5.132,3.313
	c1.3,0.829,2.614,1.659,3.94,2.49c0.884,0.554,1.775,1.108,2.67,1.662c0.896,0.555,1.798,1.109,2.706,1.664l1.366,0.832
	c0.913,0.555,1.833,1.111,2.759,1.666c1.388,0.833,2.789,1.667,4.204,2.502c3.772,2.225,7.639,4.453,11.602,6.684
	c0.495,0.279,0.992,0.557,1.49,0.836c1.495,0.836,3.003,1.673,4.525,2.51c1.015,0.558,2.035,1.116,3.062,1.674
	c2.053,1.116,4.13,2.232,6.231,3.348c1.05,0.558,2.107,1.116,3.17,1.674c1.593,0.837,3.201,1.674,4.822,2.511
	c1.621,0.836,3.255,1.673,4.904,2.51c1.649,0.836,3.311,1.672,4.986,2.509c1.117,0.557,2.24,1.115,3.37,1.672
	c1.694,0.836,3.402,1.671,5.123,2.505c1.722,0.834,3.457,1.669,5.206,2.503c0.583,0.278,1.168,0.556,1.754,0.834
	c1.173,0.556,2.351,1.111,3.535,1.666c1.185,0.555,2.375,1.11,3.572,1.665c1.197,0.554,2.4,1.109,3.609,1.663
	c1.21,0.555,2.425,1.108,3.647,1.662c1.221,0.554,2.45,1.107,3.684,1.66c1.852,0.829,3.717,1.658,5.596,2.486
	c1.253,0.552,2.511,1.103,3.777,1.654c2.531,1.103,5.086,2.203,7.667,3.302c1.29,0.55,2.587,1.099,3.89,1.647
	c1.955,0.823,3.923,1.645,5.906,2.466c1.322,0.547,2.65,1.094,3.984,1.64c1.334,0.546,2.676,1.092,4.023,1.636
	c1.347,0.545,2.701,1.09,4.061,1.634c3.4,1.36,6.839,2.716,10.318,4.069c1.392,0.541,2.79,1.082,4.194,1.621
	c1.405,0.54,2.816,1.079,4.233,1.617c1.417,0.538,2.841,1.077,4.271,1.614c1.43,0.537,2.867,1.074,4.31,1.609
	c1.443,0.536,2.893,1.071,4.349,1.605c1.455,0.535,2.918,1.068,4.387,1.601c0.734,0.266,1.47,0.532,2.208,0.799
	c1.475,0.532,2.957,1.064,4.445,1.594c1.488,0.531,2.983,1.06,4.484,1.59c1.501,0.529,3.009,1.057,4.523,1.585
	c4.542,1.582,9.144,3.157,13.804,4.724c1.554,0.522,3.114,1.043,4.68,1.564c2.35,0.781,4.714,1.559,7.093,2.336
	c2.379,0.776,4.774,1.55,7.182,2.323c4.015,1.286,8.072,2.568,12.169,3.842c1.639,0.51,3.285,1.019,4.937,1.527
	c0.826,0.254,1.654,0.507,2.483,0.76c1.66,0.507,3.325,1.012,4.997,1.517c1.672,0.505,3.351,1.008,5.037,1.51
	c2.529,0.753,5.072,1.505,7.63,2.253c1.706,0.499,3.418,0.996,5.137,1.493c7.736,2.234,15.609,4.445,23.617,6.63
	c12.459,3.399,25.249,6.736,38.375,10.004c0.938,0.234,1.877,0.467,2.818,0.699c1.882,0.465,3.771,0.929,5.667,1.391
	c4.74,1.156,9.522,2.303,14.348,3.44c7.721,1.821,15.553,3.616,23.496,5.387c1.986,0.442,3.979,0.884,5.978,1.323
	c7.999,1.758,16.11,3.489,24.333,5.193c5.139,1.066,10.323,2.119,15.551,3.163c1.045,0.209,2.093,0.417,3.142,0.625
	c9.441,1.87,19.026,3.704,28.756,5.501c1.08,0.199,2.164,0.399,3.248,0.597c2.169,0.398,4.346,0.793,6.529,1.186
	c5.459,0.983,10.961,1.955,16.51,2.915c4.438,0.768,8.906,1.527,13.402,2.279c4.496,0.751,9.021,1.495,13.575,2.23
	c3.415,0.551,6.847,1.098,10.295,1.64c10.344,1.627,20.835,3.211,31.474,4.751c1.181,0.171,2.366,0.342,3.551,0.512
	c67.589,9.691,141.122,17.596,220.904,23.204c86.78,6.099,180.951,9.479,282.904,9.479c40.609,0,79.893-0.527,117.891-1.542
	c83.891-2.239,161.498-6.849,233.178-13.397c1.318-0.12,2.635-0.241,3.949-0.363c14.457-1.339,28.672-2.757,42.648-4.25
	c1.27-0.136,2.539-0.272,3.806-0.409c78.491-8.489,149.397-19.359,213.244-31.963c23.769-4.692,46.559-9.624,68.399-14.764
	l0.066-0.016l0,0c7.512-1.768,14.911-3.56,22.198-5.376c0.918-0.229,1.835-0.458,2.75-0.688c1.83-0.459,3.652-0.92,5.468-1.382
	c0.908-0.231,1.814-0.462,2.718-0.694c37.075-9.5,71.193-19.599,102.506-30.111c1.528-0.513,3.048-1.026,4.563-1.541
	c2.271-0.772,4.528-1.547,6.769-2.323c0.747-0.259,1.493-0.518,2.236-0.777c8.182-2.852,16.164-5.731,23.948-8.635
	c0.708-0.264,1.414-0.528,2.118-0.792c17.611-6.609,34.203-13.34,49.813-20.153c0.624-0.272,1.247-0.545,1.868-0.817
	c2.485-1.091,4.945-2.184,7.38-3.279c1.218-0.547,2.429-1.095,3.634-1.644c6.025-2.742,11.894-5.494,17.61-8.255
	c1.143-0.552,2.28-1.105,3.411-1.657c6.785-3.317,13.35-6.645,19.699-9.979c1.058-0.555,2.11-1.111,3.156-1.667
	c2.092-1.112,4.16-2.225,6.205-3.338c1.533-0.834,3.053-1.67,4.56-2.505c2.009-1.114,3.993-2.228,5.955-3.342l1.467-0.836
	c0.975-0.557,1.944-1.115,2.907-1.672c0.963-0.557,1.92-1.114,2.871-1.671c1.903-1.115,3.782-2.229,5.638-3.343l1.388-0.836
	c2.766-1.671,5.48-3.341,8.143-5.01l1.327-0.835c0.882-0.556,1.757-1.112,2.628-1.668l1.301-0.834
	c0.864-0.556,1.723-1.111,2.576-1.666c0.853-0.556,1.701-1.111,2.542-1.665c0.842-0.555,1.677-1.11,2.508-1.664
	c0.83-0.554,1.655-1.109,2.474-1.662c0.819-0.554,1.632-1.109,2.44-1.661c1.211-0.83,2.41-1.659,3.597-2.488
	c0.792-0.553,1.576-1.105,2.356-1.656l1.165-0.827c1.162-0.827,2.31-1.654,3.446-2.479l1.132-0.825
	c0.752-0.549,1.498-1.1,2.239-1.649c1.481-1.099,2.941-2.195,4.379-3.29c0.719-0.547,1.432-1.094,2.14-1.641
	c1.062-0.82,2.112-1.639,3.149-2.456c0.691-0.545,1.377-1.089,2.058-1.633c0.68-0.543,1.356-1.087,2.025-1.63
	c0.67-0.542,1.334-1.085,1.993-1.627c2.636-2.167,5.185-4.324,7.65-6.471c0.924-0.805,1.836-1.609,2.737-2.411l0.896-0.801
	c0.893-0.801,1.772-1.601,2.641-2.398c0.579-0.531,1.153-1.063,1.722-1.593c0.569-0.53,1.132-1.059,1.691-1.589
	c2.232-2.115,4.382-4.217,6.448-6.305c0.516-0.522,1.028-1.043,1.534-1.564c1.772-1.821,3.482-3.631,5.129-5.429
	c0.471-0.514,0.937-1.027,1.397-1.538c0.46-0.513,0.916-1.023,1.366-1.533c0.676-0.765,1.34-1.527,1.993-2.287
	c0.653-0.76,1.295-1.518,1.926-2.273c0.421-0.504,0.836-1.006,1.247-1.507c0.41-0.501,0.816-1.002,1.216-1.501
	c0.401-0.499,0.797-0.997,1.188-1.494c0.782-0.994,1.543-1.982,2.286-2.967c0.557-0.738,1.102-1.474,1.636-2.207l1.055-1.462
	l0.816-1.155c0.409-0.584,0.812-1.166,1.207-1.746c0.819-1.202,1.607-2.398,2.366-3.583l0.896-1.42l0.868-1.411l0.684-1.142
	l0.564-0.959c0.541-0.93,1.063-1.854,1.566-2.772c0.377-0.688,0.745-1.374,1.101-2.056l0.53-1.027l0.509-1.009l0.657-1.346
	c0.536-1.117,1.044-2.225,1.523-3.323l0.562-1.313c0.274-0.653,0.538-1.304,0.791-1.951c0.254-0.646,0.497-1.29,0.73-1.929
	l0.23-0.637l0.44-1.268c0.568-1.684,1.066-3.34,1.493-4.967c0.32-1.221,0.602-2.425,0.844-3.612l0.118-0.593
	c0.344-1.773,0.6-3.507,0.769-5.201c0.171-1.695,0.255-3.349,0.255-4.961v0v-0.001
	C2309.295,993.37,2309.288,992.822,2309.276,992.275z"/>
<path style="fill:#7EB8E5;" d="M823.717,1300.748c36.454,60.756,127.589,6.075,151.892,36.454
	c19.018,24.724,25.534,53.615,22.717,83.132l0.311-0.035c105.828-12.468,207.257-41.5,298.062-99.447
	c4.577-2.921,9.1-5.882,13.576-8.879c-37.998,1.014-77.282,1.542-117.891,1.542h-0.001c-101.953,0-196.124-3.38-282.904-9.479
	c-30.259-2.126-59.618-4.584-88.097-7.344C822.107,1298.06,822.883,1299.414,823.717,1300.748z"/>
<path style="fill:#6FB0E1;" d="M1607.477,1015.191c23.515-65.843,54.311-138.966,55.754-210.917
	c-5.628,19.566-11.951,38.876-18.876,57.844c-22.687,62.144-49.156,123.151-82.641,180.101c3.632,9.225,5.626,19.273,5.626,29.788
	c0,44.938-36.429,81.367-81.367,81.367c-1.033,0-2.062-0.02-3.086-0.058c-6.274,7.608-12.635,15.094-19.093,22.46
	c55.966-4.404,111.37-9.973,165.267-16.458C1598.812,1117.969,1587.712,1066.581,1607.477,1015.191z"/>
<path style="fill:#6FB0E1;" d="M1875.499,1246.826c-0.832,1.964-1.669,3.924-2.517,5.878c-22.08,9.067-44.114,11.297-65.882,8.886
	c-63.847,12.604-134.753,23.474-213.244,31.963c-1.267,0.137-2.535,0.273-3.806,0.409c-13.976,1.493-28.191,2.911-42.648,4.25
	c-1.314,0.122-2.631,0.243-3.949,0.363c-71.681,6.548-149.288,11.158-233.178,13.397c-4.477,2.998-8.999,5.958-13.576,8.879
	c-90.804,57.947-192.233,86.979-298.062,99.447l-0.311,0.035c-6.183,64.781-57.32,132.58-119.928,165.97
	c-16.323,6.278-32.914,11.991-49.649,16.963c57.489,32.539,119.74,57.645,185.476,73.941l0.302,0.075
	c4.428,1.096,8.873,2.152,13.333,3.168l0.522,0.119c1.047,0.238,2.094,0.473,3.143,0.707l0.319,0.07
	c3.161,0.701,6.331,1.382,9.507,2.044l1.027,0.214c0.921,0.191,1.843,0.379,2.765,0.566l1.086,0.219
	c2.872,0.577,5.749,1.138,8.633,1.682l1.475,0.278c0.808,0.151,1.617,0.3,2.426,0.448c0.555,0.102,1.109,0.202,1.664,0.303
	c0.779,0.141,1.557,0.281,2.336,0.419c0.531,0.094,1.063,0.186,1.595,0.28c1.378,0.241,2.758,0.479,4.139,0.713
	c0.614,0.104,1.227,0.209,1.84,0.311c0.731,0.122,1.464,0.242,2.196,0.362c0.618,0.101,1.235,0.202,1.853,0.301
	c0.762,0.123,1.524,0.244,2.286,0.365c0.588,0.093,1.178,0.184,1.766,0.276c0.89,0.138,1.779,0.276,2.67,0.411
	c1.077,0.163,2.155,0.325,3.234,0.484c0.65,0.095,1.3,0.188,1.95,0.282c0.741,0.107,1.481,0.213,2.223,0.318
	c0.665,0.094,1.331,0.187,1.996,0.279c0.742,0.103,1.485,0.204,2.229,0.305c0.63,0.085,1.261,0.171,1.892,0.255
	c1.167,0.155,2.335,0.307,3.505,0.456c0.583,0.074,1.168,0.147,1.752,0.221c0.933,0.117,1.867,0.233,2.803,0.347
	c0.564,0.068,1.129,0.136,1.694,0.203c0.847,0.101,1.694,0.2,2.542,0.299c0.571,0.066,1.142,0.132,1.714,0.197
	c0.978,0.111,1.956,0.219,2.935,0.326c0.543,0.059,1.085,0.119,1.628,0.177c1.188,0.128,2.378,0.252,3.568,0.374
	c0.58,0.059,1.162,0.117,1.743,0.175c0.858,0.086,1.716,0.17,2.574,0.252c0.556,0.054,1.112,0.107,1.669,0.159
	c0.971,0.092,1.943,0.181,2.915,0.268l1.307,0.118c1.355,0.12,2.711,0.236,4.068,0.349l1.437,0.116
	c0.942,0.076,1.883,0.151,2.826,0.224c0.545,0.042,1.091,0.083,1.636,0.124c0.937,0.071,1.876,0.138,2.814,0.205
	c0.501,0.036,1.001,0.072,1.502,0.107c1.372,0.095,2.745,0.187,4.12,0.274l0.718,0.044c1.204,0.075,2.409,0.148,3.614,0.217
	l1.331,0.075c1.024,0.057,2.049,0.113,3.074,0.165l1.401,0.072c1.218,0.061,2.436,0.119,3.656,0.174l0.606,0.028
	c1.448,0.064,2.897,0.123,4.347,0.179l1.095,0.04c1.065,0.039,2.129,0.077,3.195,0.112c0.505,0.017,1.01,0.032,1.516,0.047
	c1.049,0.032,2.1,0.062,3.15,0.09l1.15,0.031c1.436,0.036,2.872,0.068,4.31,0.095l0.832,0.014c1.186,0.021,2.374,0.04,3.563,0.056
	l1.316,0.016c1.047,0.012,2.094,0.022,3.142,0.03l1.349,0.01c1.44,0.008,2.88,0.014,4.323,0.014l0,0
	c11.245,0,22.409-0.34,33.53-0.838c10.207-96.346,55.558-195.239,134.032-251.085c-0.919-0.901-1.842-1.807-2.77-2.72
	c-2.176-2.139-2.203-5.636-0.065-7.81c2.144-2.173,5.639-2.198,7.811-0.065c1.461,1.438,2.909,2.858,4.348,4.266
	c6.956-4.499,14.155-8.668,21.597-12.478c-1.171-4.298-2.409-8.622-3.723-12.98c-0.879-2.921,0.774-6,3.695-6.882
	c2.918-0.874,6,0.771,6.883,3.694c1.141,3.787,2.225,7.545,3.26,11.282c5.69-2.589,11.511-4.974,17.467-7.14
	c117.593-37.286,228.411-17.69,330.548,30.634l-0.003,0.004h0.173c1.144-1.3,2.292-2.598,3.426-3.907
	c2.911-3.36,5.792-6.748,8.643-10.161c1.901-2.275,3.788-4.562,5.662-6.86c1.873-2.299,3.734-4.608,5.581-6.929
	c1.846-2.321,3.679-4.654,5.499-6.997c2.729-3.516,5.427-7.057,8.093-10.622c1.778-2.377,3.542-4.765,5.291-7.164
	c1.75-2.399,3.486-4.808,5.207-7.229c1.722-2.421,3.429-4.852,5.122-7.295c1.693-2.442,3.372-4.895,5.036-7.359
	c2.497-3.695,4.96-7.414,7.391-11.156c0.811-1.248,1.617-2.498,2.42-3.75c2.409-3.758,4.785-7.538,7.128-11.342
	c4.685-7.607,9.237-15.305,13.652-23.092c0.736-1.297,1.468-2.598,2.196-3.9c2.185-3.908,4.335-7.838,6.45-11.788
	c0.705-1.317,1.406-2.636,2.103-3.958c2.092-3.965,4.15-7.952,6.172-11.959c2.022-4.008,4.008-8.036,5.959-12.084
	s3.866-8.118,5.745-12.207c1.253-2.726,2.489-5.461,3.709-8.205c1.221-2.744,2.425-5.496,3.613-8.258
	c0.542-1.261,1.08-2.524,1.616-3.789L1875.499,1246.826z"/>
<path style="fill:#3C6AAE;" d="M441.776,876.286l0.553-0.129c0.875-0.204,1.747-0.407,2.616-0.608l0.484-0.112
	c0.758-0.174,1.513-0.348,2.266-0.521l0.855-0.196c0.676-0.155,1.349-0.308,2.021-0.461l1.139-0.258
	c0.667-0.151,1.332-0.301,1.995-0.45l0.735-0.165c0.624-0.14,1.244-0.278,1.864-0.417l0.745-0.166
	c0.003-0.023,0.232-1.978,0.643-5.239c0.065-0.515,0.134-1.062,0.208-1.639l0.075-0.587l0.089-0.688l0.154-1.189l0.087-0.662
	l0.169-1.283l0.024-0.186l0.166-1.248l0.025-0.185c0.748-5.583,1.716-12.457,2.826-19.545l0.192-1.212
	c0.086-0.54,0.171-1.08,0.258-1.621l0.194-1.203l0.048-0.292l0.218-1.324c0.216-1.299,0.435-2.595,0.657-3.883l0.029-0.169
	l0.181-1.039l0.067-0.384c0.091-0.516,0.182-1.03,0.274-1.542c0.337-1.891,0.679-3.758,1.023-5.593
	c0.126-0.674,0.252-1.346,0.379-2.01h-0.002c-92.202,24.285-205.153,65.277-205.153,113.006c0,1.289,0.088,2.594,0.23,3.908
	l0.003,0.026C308.966,911.437,381.743,890.325,441.776,876.286z"/>
<path style="fill:#3C6AAE;" d="M1925.207,843.987c0.496,3.002,0.995,6.067,1.508,9.255l0.911,7.697l1.568,13.239h0.001l0.194,0.049
	c0.665,0.167,1.332,0.336,2.001,0.505l0.753,0.191c0.635,0.161,1.272,0.324,1.91,0.487l0.312,0.08
	c0.8,0.204,1.602,0.411,2.406,0.619l0.061,0.016c52.1,13.478,113.027,33.433,155.979,57.366l0.002-0.031l0.019-0.373
	c0-45.027-90.161-84.826-171.156-109.695l-0.006-0.002C1922.925,830.392,1924.057,837.017,1925.207,843.987z"/>
<path style="fill:#3C6AAE;" d="M2309.295,993.919L2309.295,993.919c0-0.55-0.008-1.098-0.019-1.644l-0.01-0.434l-0.049-1.399
	l-0.011-0.264c-0.026-0.552-0.058-1.102-0.096-1.653l-0.022-0.298l-0.121-1.485l-0.019-0.218
	c-3.427-36.291-31.92-67.891-74.408-94.754c6.864,13.055,10.701,72.227,10.701,86.727c0,91.721-257.274,274.181-1053.883,274.181
	c-794.422,0-1088.131-191.565-1088.131-280.678c0-14.331,3.554-66.738,10.014-79.441c-35.104,21.677-60.536,46.879-70.006,75.939
	l-0.049,0.151c-0.174,0.539-0.344,1.079-0.507,1.621l-0.021,0.068c-0.337,1.12-0.649,2.246-0.939,3.377l-0.075,0.297l-0.347,1.429
	l-0.063,0.267c-0.254,1.103-0.483,2.213-0.69,3.327l-0.075,0.413l-0.224,1.3l-0.065,0.397c-0.088,0.556-0.172,1.114-0.249,1.672
	l-0.01,0.076c-0.072,0.526-0.137,1.052-0.199,1.58l-0.051,0.452l-0.13,1.262l-0.044,0.467c-0.05,0.556-0.095,1.113-0.133,1.672
	l-0.003,0.044c-0.037,0.544-0.067,1.089-0.093,1.635l-0.02,0.48l-0.042,1.237l-0.013,0.514c-0.012,0.56-0.019,1.121-0.019,1.683
	v0.001v0c0,1.218,0.058,2.463,0.175,3.733c0.05,0.544,0.112,1.093,0.183,1.647c0.239,1.845,0.598,3.742,1.08,5.687
	c0.53,2.14,1.207,4.338,2.034,6.591c0.526,1.434,1.113,2.89,1.762,4.367c0.741,1.688,1.562,3.404,2.463,5.147l0.691,1.312
	l0.722,1.321c0.614,1.106,1.26,2.221,1.938,3.346l0.829,1.355c1.125,1.812,2.333,3.649,3.623,5.508l0.983,1.399l1.014,1.407
	c0.687,0.941,1.394,1.888,2.123,2.84c0.91,1.19,1.853,2.389,2.829,3.595c0.585,0.724,1.183,1.45,1.792,2.18
	c1.624,1.946,3.334,3.912,5.128,5.897c0.449,0.497,0.902,0.994,1.362,1.492c0.689,0.748,1.39,1.499,2.103,2.251l0.717,0.754
	c0.48,0.503,0.967,1.007,1.458,1.512c0.737,0.758,1.487,1.518,2.248,2.281c0.507,0.508,1.02,1.018,1.539,1.528
	c1.296,1.276,2.626,2.559,3.991,3.848c0.819,0.773,1.649,1.549,2.492,2.326c0.562,0.519,1.13,1.038,1.702,1.558
	c0.573,0.52,1.152,1.041,1.735,1.563l0.88,0.784c0.589,0.523,1.184,1.047,1.785,1.571c0.901,0.787,1.814,1.576,2.74,2.367
	c0.925,0.79,1.864,1.583,2.814,2.377c0.634,0.53,1.273,1.06,1.918,1.591l0.971,0.797c1.301,1.064,2.624,2.131,3.969,3.2
	c1.009,0.803,2.031,1.606,3.065,2.412c0.689,0.537,1.384,1.075,2.085,1.613c1.752,1.346,3.539,2.696,5.362,4.05
	c1.094,0.812,2.199,1.626,3.319,2.441c1.118,0.815,2.251,1.631,3.396,2.448c0.763,0.545,1.532,1.09,2.307,1.636
	c2.323,1.638,4.698,3.281,7.126,4.927l1.218,0.824c2.037,1.374,4.11,2.749,6.219,4.128c1.687,1.103,3.398,2.207,5.132,3.313
	c1.3,0.829,2.614,1.659,3.94,2.49c0.884,0.554,1.775,1.108,2.67,1.662c0.896,0.555,1.798,1.109,2.706,1.664l1.366,0.832
	c0.913,0.555,1.833,1.111,2.759,1.666c1.388,0.833,2.789,1.667,4.204,2.502c3.772,2.225,7.639,4.453,11.602,6.684
	c0.495,0.279,0.992,0.557,1.49,0.836c1.495,0.836,3.003,1.673,4.525,2.51c1.015,0.558,2.035,1.116,3.062,1.674
	c2.053,1.116,4.13,2.232,6.231,3.348c1.05,0.558,2.107,1.116,3.17,1.674c1.593,0.837,3.201,1.674,4.822,2.511
	c1.621,0.836,3.255,1.673,4.904,2.51c1.649,0.836,3.311,1.672,4.986,2.509c1.117,0.557,2.24,1.115,3.37,1.672
	c1.694,0.836,3.402,1.671,5.123,2.505c1.722,0.834,3.457,1.669,5.206,2.503c0.583,0.278,1.168,0.556,1.754,0.834
	c1.173,0.556,2.351,1.111,3.535,1.666c1.185,0.555,2.375,1.11,3.572,1.665c1.197,0.554,2.4,1.109,3.609,1.663
	c1.21,0.555,2.425,1.108,3.647,1.662c1.221,0.554,2.45,1.107,3.684,1.66c1.852,0.829,3.717,1.658,5.596,2.486
	c1.253,0.552,2.511,1.103,3.777,1.654c2.531,1.103,5.086,2.203,7.667,3.302c1.29,0.55,2.587,1.099,3.89,1.647
	c1.955,0.823,3.923,1.645,5.906,2.466c1.322,0.547,2.65,1.094,3.984,1.64c1.334,0.546,2.676,1.092,4.023,1.636
	c1.347,0.545,2.701,1.09,4.061,1.634c3.4,1.36,6.839,2.716,10.318,4.069c1.392,0.541,2.79,1.082,4.194,1.621
	c1.405,0.54,2.816,1.079,4.233,1.617c1.417,0.538,2.841,1.077,4.271,1.614c1.43,0.537,2.867,1.074,4.31,1.609
	c1.443,0.536,2.893,1.071,4.349,1.605c1.455,0.535,2.918,1.068,4.387,1.601c0.734,0.266,1.47,0.532,2.208,0.799
	c1.475,0.532,2.957,1.064,4.445,1.594c1.488,0.531,2.983,1.06,4.484,1.59c1.501,0.529,3.009,1.057,4.523,1.585
	c4.542,1.582,9.144,3.157,13.804,4.724c1.554,0.522,3.114,1.043,4.68,1.564c2.35,0.781,4.714,1.559,7.093,2.336
	c2.379,0.776,4.774,1.55,7.182,2.323c4.015,1.286,8.072,2.568,12.169,3.842c1.639,0.51,3.285,1.019,4.937,1.527
	c0.826,0.254,1.654,0.507,2.483,0.76c1.66,0.507,3.325,1.012,4.997,1.517c1.672,0.505,3.351,1.008,5.037,1.51
	c2.529,0.753,5.072,1.505,7.63,2.253c1.706,0.499,3.418,0.996,5.137,1.493c7.736,2.234,15.609,4.445,23.617,6.63
	c12.459,3.399,25.249,6.736,38.375,10.004c0.938,0.234,1.877,0.467,2.818,0.699c1.882,0.465,3.771,0.929,5.667,1.391
	c4.74,1.156,9.522,2.303,14.348,3.44c7.721,1.821,15.553,3.616,23.496,5.387c1.986,0.442,3.979,0.884,5.978,1.323
	c7.999,1.758,16.11,3.489,24.333,5.193c5.139,1.066,10.323,2.119,15.551,3.163c1.045,0.209,2.093,0.417,3.142,0.625
	c9.441,1.87,19.026,3.704,28.756,5.501c1.08,0.199,2.164,0.399,3.248,0.597c2.169,0.398,4.346,0.793,6.529,1.186
	c5.459,0.983,10.961,1.955,16.51,2.915c4.438,0.768,8.906,1.527,13.402,2.279c4.496,0.751,9.021,1.495,13.575,2.23
	c3.415,0.551,6.847,1.098,10.295,1.64c10.344,1.627,20.835,3.211,31.474,4.751c1.181,0.171,2.366,0.342,3.551,0.512
	c67.589,9.691,141.122,17.596,220.904,23.204c86.78,6.099,180.951,9.479,282.904,9.479c40.609,0,79.893-0.527,117.891-1.542
	c83.891-2.239,161.498-6.849,233.178-13.397c1.318-0.12,2.635-0.241,3.949-0.363c14.457-1.339,28.672-2.757,42.648-4.25
	c1.27-0.136,2.539-0.272,3.806-0.409c78.491-8.489,149.397-19.359,213.244-31.963c23.769-4.692,46.559-9.624,68.399-14.764
	l0.066-0.016l0,0c7.512-1.768,14.911-3.56,22.198-5.376c0.918-0.229,1.835-0.458,2.75-0.688c1.83-0.459,3.652-0.92,5.468-1.382
	c0.908-0.231,1.814-0.462,2.718-0.694c37.075-9.5,71.193-19.599,102.506-30.111c1.528-0.513,3.048-1.026,4.563-1.541
	c2.271-0.772,4.528-1.547,6.769-2.323c0.747-0.259,1.493-0.518,2.236-0.777c8.182-2.852,16.164-5.731,23.948-8.635
	c0.708-0.264,1.414-0.528,2.118-0.792c17.611-6.609,34.203-13.34,49.813-20.153c0.624-0.272,1.247-0.545,1.868-0.817
	c2.485-1.091,4.945-2.184,7.38-3.279c1.218-0.547,2.429-1.095,3.634-1.644c6.025-2.742,11.894-5.494,17.61-8.255
	c1.143-0.552,2.28-1.105,3.411-1.657c6.785-3.317,13.35-6.645,19.699-9.979c1.058-0.555,2.11-1.111,3.156-1.667
	c2.092-1.112,4.16-2.225,6.205-3.338c1.533-0.834,3.053-1.67,4.56-2.505c2.009-1.114,3.993-2.228,5.955-3.342l1.467-0.836
	c0.975-0.557,1.944-1.115,2.907-1.672c0.963-0.557,1.92-1.114,2.871-1.671c1.903-1.115,3.782-2.229,5.638-3.343l1.388-0.836
	c2.766-1.671,5.48-3.341,8.143-5.01l1.327-0.835c0.882-0.556,1.757-1.112,2.628-1.668l1.301-0.834
	c0.864-0.556,1.723-1.111,2.576-1.666c0.853-0.556,1.701-1.111,2.542-1.665c0.842-0.555,1.677-1.11,2.508-1.664
	c0.83-0.554,1.655-1.109,2.474-1.662c0.819-0.554,1.632-1.109,2.44-1.661c1.211-0.83,2.41-1.659,3.597-2.488
	c0.792-0.553,1.576-1.105,2.356-1.656l1.165-0.827c1.162-0.827,2.31-1.654,3.446-2.479l1.132-0.825
	c0.752-0.549,1.498-1.1,2.239-1.649c1.481-1.099,2.941-2.195,4.379-3.29c0.719-0.547,1.432-1.094,2.14-1.641
	c1.062-0.82,2.112-1.639,3.149-2.456c0.691-0.545,1.377-1.089,2.058-1.633c0.68-0.543,1.356-1.087,2.025-1.63
	c0.67-0.542,1.334-1.085,1.993-1.627c2.636-2.167,5.185-4.324,7.65-6.471c0.924-0.805,1.836-1.609,2.737-2.411l0.896-0.801
	c0.893-0.801,1.772-1.601,2.641-2.398c0.579-0.531,1.153-1.063,1.722-1.593c0.569-0.53,1.132-1.059,1.691-1.589
	c2.232-2.115,4.382-4.217,6.448-6.305c0.516-0.522,1.028-1.043,1.534-1.564c1.772-1.821,3.482-3.631,5.129-5.429
	c0.471-0.514,0.937-1.027,1.397-1.538c0.46-0.513,0.916-1.023,1.366-1.533c0.676-0.765,1.34-1.527,1.993-2.287
	c0.653-0.76,1.295-1.518,1.926-2.273c0.421-0.504,0.836-1.006,1.247-1.507c0.41-0.501,0.816-1.002,1.216-1.501
	c0.401-0.499,0.797-0.997,1.188-1.494c0.782-0.994,1.543-1.982,2.286-2.967c0.557-0.738,1.102-1.474,1.636-2.207l1.055-1.462
	l0.816-1.155c0.409-0.584,0.812-1.166,1.207-1.746c0.819-1.202,1.607-2.398,2.366-3.583l0.896-1.42l0.868-1.411l0.684-1.142
	l0.564-0.959c0.541-0.93,1.063-1.854,1.566-2.772c0.377-0.688,0.745-1.374,1.101-2.056l0.53-1.027l0.509-1.009l0.657-1.346
	c0.536-1.117,1.044-2.225,1.523-3.323l0.562-1.313c0.274-0.653,0.538-1.304,0.791-1.951c0.254-0.646,0.497-1.29,0.73-1.929
	l0.23-0.637l0.44-1.268c0.568-1.684,1.066-3.34,1.493-4.967c0.32-1.221,0.602-2.425,0.844-3.612l0.118-0.593
	c0.344-1.773,0.6-3.507,0.769-5.201C2309.211,997.186,2309.295,995.532,2309.295,993.919L2309.295,993.919z"/>
<ellipse transform="matrix(0.9225 -0.386 0.386 0.9225 -110.522 405.6794)" style="fill:#95C9EE;" cx="955.04" cy="478.083" rx="238.527" ry="174.048"/>
<path style="fill:#95C9EE;" d="M626.935,573.475c-44.63,13.02-69.397,62.696-55.318,110.955
	c14.078,48.259,61.67,76.827,106.3,63.807c40.167-11.718,64.244-53.128,58.395-96.474c-0.65-4.816-1.668-9.656-3.075-14.481
	c-1.863-6.386-4.313-12.426-7.265-18.072C706.615,582.19,665.661,562.178,626.935,573.475z"/>
<path style="fill:#95C9EE;" d="M736.088,781.26c1.188,10.606,4.685,20.486,10.034,29.341c17.953,29.718,56.786,47.882,99.34,43.118
	c55.233-6.183,95.815-48.651,90.643-94.851c-5.172-46.202-54.141-78.643-109.374-72.459c-33.808,3.785-62.125,21.164-77.821,44.672
	C738.961,745.978,734.082,763.338,736.088,781.26z"/>
<path style="fill:#DC2515;" d="M1567.34,1072.007c0-10.515-1.995-20.563-5.626-29.788c-11.887-30.202-41.318-51.578-75.741-51.578
	c-44.937,0-81.366,36.429-81.366,81.366c0,43.904,34.773,79.686,78.28,81.309c1.024,0.038,2.053,0.058,3.086,0.058
	C1530.911,1153.374,1567.34,1116.945,1567.34,1072.007z"/>
<path style="fill:#DC2515;" d="M862.496,1153.374c44.938,0,81.367-36.429,81.367-81.367c0-44.937-36.429-81.366-81.367-81.366
	c-23.471,0-44.62,9.939-59.47,25.835c-10.544,11.288-17.912,25.579-20.681,41.451c-0.798,4.574-1.215,9.278-1.215,14.08
	C781.129,1116.945,817.558,1153.374,862.496,1153.374z"/>
<path style="fill:#38170E;" d="M1231.836,953.428c0-3.258-0.227-6.305-0.695-9.315c-0.936-6.028-6.575-10.178-12.611-9.218
	c-6.027,0.936-10.157,6.58-9.218,12.611c0.292,1.874,0.431,3.81,0.431,5.922c0,25.244-17.255,49.108-35.507,49.108
	s-35.51-23.865-35.51-49.108c0-2.112,0.14-4.048,0.432-5.922c0.938-6.03-3.191-11.675-9.218-12.611
	c-1.307-0.208-2.595-0.176-3.82,0.061c-4.441,0.86-8.057,4.43-8.79,9.157c-0.469,3.01-0.696,6.057-0.696,9.315
	c0,33.676,23.657,71.201,57.603,71.201c4.223,0,8.287-0.582,12.166-1.663C1213.701,1015.352,1231.836,982.915,1231.836,953.428z"/>
<path style="fill:#49221C;" d="M1376.686,879.047c-25.796,0-46.708,28.317-46.708,63.248c0,34.931,20.912,63.249,46.708,63.249
	c4.073,0,8.024-0.708,11.79-2.034c20.088-7.075,34.917-31.798,34.917-61.215c0-4.258-0.313-8.417-0.905-12.439
	C1418.22,900.882,1399.337,879.047,1376.686,879.047z"/>
<path style="fill:#49221C;" d="M971.784,1005.544c3.919,0,7.724-0.657,11.361-1.888c20.305-6.872,35.347-31.736,35.347-61.361
	c0-34.931-20.912-63.248-46.708-63.248c-17.279,0-32.365,12.706-40.444,31.594c-3.982,9.31-6.263,20.122-6.263,31.655
	C925.077,977.226,945.988,1005.544,971.784,1005.544z"/>
<path style="fill:#FFFFFF;" d="M1396.158,1481.673c-19.388,5.057-39.437,10.289-58.123,17.632c-2.84,1.116-4.237,4.32-3.121,7.16
	c0.855,2.177,2.937,3.506,5.143,3.506c0.672,0,1.354-0.124,2.017-0.385c17.655-6.938,36.045-11.791,55.483-16.863
	c-9.158,20.006-17.134,40.552-23.867,61.515c-0.933,2.904,0.667,6.014,3.571,6.947c0.561,0.181,1.13,0.267,1.688,0.267
	c2.335,0,4.507-1.494,5.259-3.838c6.258-19.483,13.614-38.599,22.011-57.245c3.14,21.414,5.545,43.23,8.1,66.406l0.642,5.839
	c0.313,2.826,2.705,4.916,5.483,4.916l0.615-0.032c3.031-0.337,5.218-3.067,4.884-6.098l-0.645-5.836
	c-2.553-23.169-4.96-44.993-8.095-66.444c15.107,12.706,30.847,24.823,48.802,37.309c0.96,0.669,2.061,0.99,3.147,0.99
	c1.748,0,3.466-0.828,4.539-2.371c1.742-2.503,1.125-5.946-1.381-7.686c-19.437-13.519-36.258-26.616-52.53-40.546
	c15.714-4.341,31.522-9.248,46.81-15.782c2.805-1.197,4.107-4.445,2.907-7.249c-1.197-2.805-4.439-4.115-7.249-2.907
	c-14.32,6.121-29.289,10.807-44.244,14.966c7.276-14.222,15.173-28.129,23.674-41.67c1.624-2.584,0.844-5.993-1.739-7.613
	c-2.575-1.627-5.99-0.844-7.613,1.739c-7.444,11.854-14.431,23.984-20.956,36.355c-2.667-13.63-5.827-27.323-9.705-41.33
	c-1.035-3.737-2.119-7.495-3.26-11.282c-0.882-2.923-3.965-4.568-6.883-3.694c-2.921,0.882-4.574,3.962-3.695,6.882
	c1.314,4.358,2.552,8.682,3.723,12.98c3.885,14.257,7.025,28.224,9.668,42.17c-10.156-9.274-20.407-19.068-31.265-29.693
	c-1.439-1.407-2.887-2.828-4.348-4.266c-2.171-2.133-5.666-2.109-7.811,0.065c-2.139,2.174-2.111,5.672,0.065,7.81
	c0.928,0.913,1.851,1.819,2.77,2.72c12.694,12.446,24.548,23.766,36.351,34.44L1396.158,1481.673z"/>
<path style="fill:#FFFFFF;" d="M599.254,1117.575c2.805-1.197,4.107-4.444,2.907-7.249c-1.197-2.805-4.44-4.105-7.249-2.907
	c-10.137,4.333-20.714,7.736-31.321,10.75c5.248-10.088,10.901-19.967,16.952-29.605c1.623-2.583,0.844-5.992-1.739-7.613
	c-2.581-1.62-5.99-0.844-7.614,1.74c-5.155,8.21-10.029,16.591-14.618,25.124c-2.496-12.268-5.53-24.632-9.379-37.401
	c-0.879-2.921-3.962-4.574-6.883-3.694c-2.921,0.881-4.574,3.961-3.694,6.883c3.988,13.226,7.083,26.055,9.611,38.831
	c-7.982-7.368-16.089-15.178-24.733-23.683c-2.171-2.133-5.666-2.109-7.81,0.065c-2.139,2.173-2.112,5.671,0.065,7.81
	c10.032,9.87,19.353,18.821,28.597,27.239c-4.647,1.213-9.336,2.446-14.026,3.739c-9.982,2.753-19.957,5.786-29.492,9.535
	c-2.84,1.116-4.237,4.32-3.121,7.16c0.855,2.176,2.937,3.506,5.143,3.506c0.672,0,1.354-0.124,2.017-0.385
	c12.824-5.039,26.187-8.659,40.256-12.341c-6.652,14.77-12.479,29.913-17.437,45.348c-0.933,2.905,0.666,6.014,3.57,6.947
	c0.561,0.181,1.13,0.267,1.688,0.267c2.336,0,4.506-1.494,5.259-3.838c4.386-13.657,9.47-27.08,15.22-40.209
	c2.134,15.181,3.843,30.678,5.648,47.054l0.496,4.52c0.313,2.826,2.705,4.917,5.483,4.917l0.615-0.033
	c3.032-0.337,5.219-3.066,4.884-6.098l-0.499-4.517c-1.85-16.78-3.6-32.65-5.805-48.227c10.954,9.097,22.411,17.847,35.352,26.846
	c0.96,0.669,2.06,0.99,3.147,0.99c1.748,0,3.466-0.828,4.539-2.371c1.742-2.503,1.125-5.946-1.381-7.686
	c-11.513-8.006-21.839-15.824-31.698-23.889c-2.379-1.946-4.733-3.907-7.068-5.888
	C576.592,1125.995,588.092,1122.345,599.254,1117.575z"/>
<path style="fill:#FFFFFF;" d="M1669.886,605.102c1.742-2.503,1.125-5.946-1.381-7.686c-22.824-15.874-42.508-31.24-61.582-47.633
	c18.513-5.081,37.156-10.808,55.155-18.501c2.805-1.198,4.108-4.445,2.907-7.249s-4.439-4.108-7.249-2.907
	c-17.07,7.294-34.922,12.818-52.725,17.726c8.603-16.94,17.97-33.493,28.081-49.595c1.623-2.584,0.844-5.993-1.74-7.613
	c-2.58-1.624-5.989-0.845-7.613,1.739c-8.954,14.259-17.337,28.866-25.131,43.777c-3.956-20.569-8.862-41.232-15.319-62.653
	c-0.879-2.921-3.972-4.563-6.883-3.694c-2.921,0.882-4.574,3.962-3.694,6.883c6.776,22.48,11.823,44.172,15.853,65.848
	c-13.812-12.553-27.732-25.913-42.742-40.68c-2.171-2.136-5.666-2.109-7.81,0.065c-2.139,2.174-2.112,5.672,0.065,7.81
	c16.192,15.931,31.134,30.245,46.038,43.681c-0.804,0.211-1.608,0.42-2.41,0.629c-22.249,5.806-45.254,11.807-66.676,20.227
	c-2.84,1.116-4.237,4.32-3.12,7.16c0.854,2.176,2.937,3.506,5.143,3.506c0.672,0,1.354-0.124,2.017-0.386
	c20.807-8.177,42.479-13.832,65.425-19.817l0.081-0.021c-10.808,23.445-20.204,47.543-28.107,72.144
	c-0.933,2.905,0.666,6.014,3.571,6.947c0.561,0.181,1.13,0.267,1.688,0.267c2.335,0,4.507-1.494,5.259-3.838
	c7.484-23.299,16.328-46.14,26.467-68.389c3.813,25.508,6.674,51.465,9.72,79.107l0.736,6.675c0.313,2.826,2.705,4.916,5.483,4.916
	l0.615-0.032c3.031-0.337,5.219-3.067,4.884-6.098l-0.736-6.672c-3.019-27.389-5.856-53.14-9.613-78.47
	c17.841,15.09,36.397,29.424,57.658,44.209c0.96,0.669,2.06,0.99,3.147,0.99C1667.094,607.472,1668.813,606.644,1669.886,605.102z"
	/>
</svg>
